REM DIRINDEX 1\3,1\2\4,1\2\5,1\2\6
REM DIRNAME cjc137,folder01,folder02,folder03,folder04,folder05
TITLE ""
FILE "129.mp3" MP3
  TRACK 01 AUDIO
    TITLE "4:cjc137_5365"
    INDEX 01 00:00:00
  TRACK 02 AUDIO
    TITLE "0:"
    INDEX 01 00:01:11
  TRACK 03 AUDIO
    TITLE "6:cjc137_5366"
    INDEX 01 00:01:19
  TRACK 04 AUDIO
    TITLE "0:"
    INDEX 01 00:02:47
  TRACK 05 AUDIO
    TITLE "5:cjc137_5367"
    INDEX 01 00:02:55
  TRACK 06 AUDIO
    TITLE "0:"
    INDEX 01 00:03:64
  TRACK 07 AUDIO
    TITLE "4:cjc137_5368"
    INDEX 01 00:04:72
  TRACK 08 AUDIO
    TITLE "0:"
    INDEX 01 00:06:14
  TRACK 09 AUDIO
    TITLE "6:cjc137_5369"
    INDEX 01 00:06:24
  TRACK 10 AUDIO
    TITLE "0:"
    INDEX 01 00:07:62
  TRACK 11 AUDIO
    TITLE "5:cjc137_5370"
    INDEX 01 00:07:70
  TRACK 12 AUDIO
    TITLE "0:"
    INDEX 01 00:09:14
  TRACK 13 AUDIO
    TITLE "4:cjc137_5371"
    INDEX 01 00:10:21
  TRACK 14 AUDIO
    TITLE "0:"
    INDEX 01 00:11:39
  TRACK 15 AUDIO
    TITLE "6:cjc137_5372"
    INDEX 01 00:11:44
  TRACK 16 AUDIO
    TITLE "0:"
    INDEX 01 00:12:56
  TRACK 17 AUDIO
    TITLE "5:cjc137_5373"
    INDEX 01 00:12:60
  TRACK 18 AUDIO
    TITLE "0:"
    INDEX 01 00:14:00
  TRACK 19 AUDIO
    TITLE "4:cjc137_5374"
    INDEX 01 00:15:07
  TRACK 20 AUDIO
    TITLE "0:"
    INDEX 01 00:16:12
  TRACK 21 AUDIO
    TITLE "6:cjc137_5375"
    INDEX 01 00:16:18
  TRACK 22 AUDIO
    TITLE "0:"
    INDEX 01 00:17:29
  TRACK 23 AUDIO
    TITLE "5:cjc137_5376"
    INDEX 01 00:17:33
  TRACK 24 AUDIO
    TITLE "0:"
    INDEX 01 00:18:39
  TRACK 25 AUDIO
    TITLE "4:cjc137_5377"
    INDEX 01 00:19:46
  TRACK 26 AUDIO
    TITLE "0:"
    INDEX 01 00:20:63
  TRACK 27 AUDIO
    TITLE "6:cjc137_5378"
    INDEX 01 00:20:71
  TRACK 28 AUDIO
    TITLE "0:"
    INDEX 01 00:22:17
  TRACK 29 AUDIO
    TITLE "5:cjc137_5379"
    INDEX 01 00:22:21
  TRACK 30 AUDIO
    TITLE "0:"
    INDEX 01 00:23:38
  TRACK 31 AUDIO
    TITLE "4:cjc137_5380"
    INDEX 01 00:24:47
  TRACK 32 AUDIO
    TITLE "0:"
    INDEX 01 00:25:66
  TRACK 33 AUDIO
    TITLE "6:cjc137_5381"
    INDEX 01 00:25:72
  TRACK 34 AUDIO
    TITLE "0:"
    INDEX 01 00:27:08
  TRACK 35 AUDIO
    TITLE "5:cjc137_5382"
    INDEX 01 00:27:14
  TRACK 36 AUDIO
    TITLE "0:"
    INDEX 01 00:28:33
  TRACK 37 AUDIO
    TITLE "4:cjc137_5383"
    INDEX 01 00:29:40
  TRACK 38 AUDIO
    TITLE "0:"
    INDEX 01 00:30:57
  TRACK 39 AUDIO
    TITLE "6:cjc137_5384"
    INDEX 01 00:30:63
  TRACK 40 AUDIO
    TITLE "0:"
    INDEX 01 00:31:63
  TRACK 41 AUDIO
    TITLE "5:cjc137_5385"
    INDEX 01 00:31:67
  TRACK 42 AUDIO
    TITLE "0:"
    INDEX 01 00:33:09
  TRACK 43 AUDIO
    TITLE "4:cjc137_5386"
    INDEX 01 00:34:18
  TRACK 44 AUDIO
    TITLE "0:"
    INDEX 01 00:35:23
  TRACK 45 AUDIO
    TITLE "6:cjc137_5387"
    INDEX 01 00:35:29
  TRACK 46 AUDIO
    TITLE "0:"
    INDEX 01 00:36:27
  TRACK 47 AUDIO
    TITLE "5:cjc137_5388"
    INDEX 01 00:36:33
  TRACK 48 AUDIO
    TITLE "0:"
    INDEX 01 00:37:38
  TRACK 49 AUDIO
    TITLE "4:cjc137_5389"
    INDEX 01 00:38:47
  TRACK 50 AUDIO
    TITLE "0:"
    INDEX 01 00:39:54
  TRACK 51 AUDIO
    TITLE "6:cjc137_5390"
    INDEX 01 00:39:60
  TRACK 52 AUDIO
    TITLE "0:"
    INDEX 01 00:40:54
  TRACK 53 AUDIO
    TITLE "5:cjc137_5391"
    INDEX 01 00:40:60
  TRACK 54 AUDIO
    TITLE "0:"
    INDEX 01 00:41:69
  TRACK 55 AUDIO
    TITLE "4:cjc137_5392"
    INDEX 01 00:42:74
  TRACK 56 AUDIO
    TITLE "0:"
    INDEX 01 00:44:09
  TRACK 57 AUDIO
    TITLE "6:cjc137_5393"
    INDEX 01 00:44:12
  TRACK 58 AUDIO
    TITLE "0:"
    INDEX 01 00:45:18
  TRACK 59 AUDIO
    TITLE "5:cjc137_5394"
    INDEX 01 00:45:24
  TRACK 60 AUDIO
    TITLE "0:"
    INDEX 01 00:46:33
  TRACK 61 AUDIO
    TITLE "4:cjc137_5395"
    INDEX 01 00:47:38
  TRACK 62 AUDIO
    TITLE "0:"
    INDEX 01 00:48:69
  TRACK 63 AUDIO
    TITLE "6:cjc137_5396"
    INDEX 01 00:49:02
  TRACK 64 AUDIO
    TITLE "0:"
    INDEX 01 00:50:27
  TRACK 65 AUDIO
    TITLE "5:cjc137_5397"
    INDEX 01 00:50:33
  TRACK 66 AUDIO
    TITLE "0:"
    INDEX 01 00:51:63
  TRACK 67 AUDIO
    TITLE "4:cjc137_5398"
    INDEX 01 00:52:71
  TRACK 68 AUDIO
    TITLE "0:"
    INDEX 01 00:54:05
  TRACK 69 AUDIO
    TITLE "6:cjc137_5399"
    INDEX 01 00:54:13
  TRACK 70 AUDIO
    TITLE "0:"
    INDEX 01 00:54:68
  TRACK 71 AUDIO
    TITLE "5:cjc137_5400"
    INDEX 01 00:55:01
  TRACK 72 AUDIO
    TITLE "0:"
    INDEX 01 00:56:08
  TRACK 73 AUDIO
    TITLE "4:cjc137_5401"
    INDEX 01 00:57:19
  TRACK 74 AUDIO
    TITLE "0:"
    INDEX 01 00:58:32
  TRACK 75 AUDIO
    TITLE "6:cjc137_5402"
    INDEX 01 00:58:42
  TRACK 76 AUDIO
    TITLE "0:"
    INDEX 01 00:59:39
  TRACK 77 AUDIO
    TITLE "5:cjc137_5403"
    INDEX 01 00:59:45
  TRACK 78 AUDIO
    TITLE "0:"
    INDEX 01 01:00:59
  TRACK 79 AUDIO
    TITLE "4:cjc137_5404"
    INDEX 01 01:01:70
  TRACK 80 AUDIO
    TITLE "0:"
    INDEX 01 01:03:06
  TRACK 81 AUDIO
    TITLE "6:cjc137_5405"
    INDEX 01 01:03:12
  TRACK 82 AUDIO
    TITLE "0:"
    INDEX 01 01:04:35
  TRACK 83 AUDIO
    TITLE "5:cjc137_5406"
    INDEX 01 01:04:45
  TRACK 84 AUDIO
    TITLE "0:"
    INDEX 01 01:05:56
  TRACK 85 AUDIO
    TITLE "4:cjc137_5407"
    INDEX 01 01:06:63
  TRACK 86 AUDIO
    TITLE "0:"
    INDEX 01 01:08:17
  TRACK 87 AUDIO
    TITLE "6:cjc137_5408"
    INDEX 01 01:08:25
  TRACK 88 AUDIO
    TITLE "0:"
    INDEX 01 01:09:20
  TRACK 89 AUDIO
    TITLE "5:cjc137_5409"
    INDEX 01 01:09:28
  TRACK 90 AUDIO
    TITLE "0:"
    INDEX 01 01:10:57
  TRACK 91 AUDIO
    TITLE "4:cjc137_5410"
    INDEX 01 01:11:64
  TRACK 92 AUDIO
    TITLE "0:"
    INDEX 01 01:13:08
  TRACK 93 AUDIO
    TITLE "6:cjc137_5411"
    INDEX 01 01:13:16
  TRACK 94 AUDIO
    TITLE "0:"
    INDEX 01 01:14:14
  TRACK 95 AUDIO
    TITLE "5:cjc137_5412"
    INDEX 01 01:14:17
  TRACK 96 AUDIO
    TITLE "0:"
    INDEX 01 01:15:39
  TRACK 97 AUDIO
    TITLE "4:cjc137_5413"
    INDEX 01 01:16:48
  TRACK 98 AUDIO
    TITLE "0:"
    INDEX 01 01:17:57
  TRACK 99 AUDIO
    TITLE "6:cjc137_5414"
    INDEX 01 01:17:63
  TRACK 100 AUDIO
    TITLE "0:"
    INDEX 01 01:19:23
  TRACK 101 AUDIO
    TITLE "5:cjc137_5415"
    INDEX 01 01:19:28
  TRACK 102 AUDIO
    TITLE "0:"
    INDEX 01 01:20:38
  TRACK 103 AUDIO
    TITLE "4:cjc137_5416"
    INDEX 01 01:21:45
  TRACK 104 AUDIO
    TITLE "0:"
    INDEX 01 01:22:66
  TRACK 105 AUDIO
    TITLE "6:cjc137_5417"
    INDEX 01 01:22:74
  TRACK 106 AUDIO
    TITLE "0:"
    INDEX 01 01:24:12
  TRACK 107 AUDIO
    TITLE "5:cjc137_5418"
    INDEX 01 01:24:18
  TRACK 108 AUDIO
    TITLE "0:"
    INDEX 01 01:25:39
  TRACK 109 AUDIO
    TITLE "4:cjc137_5419"
    INDEX 01 01:26:48
  TRACK 110 AUDIO
    TITLE "0:"
    INDEX 01 01:27:59
  TRACK 111 AUDIO
    TITLE "6:cjc137_5420"
    INDEX 01 01:27:65
  TRACK 112 AUDIO
    TITLE "0:"
    INDEX 01 01:29:15
  TRACK 113 AUDIO
    TITLE "5:cjc137_5421"
    INDEX 01 01:29:25
  TRACK 114 AUDIO
    TITLE "0:"
    INDEX 01 01:30:36
  TRACK 115 AUDIO
    TITLE "4:cjc137_5422"
    INDEX 01 01:31:43
  TRACK 116 AUDIO
    TITLE "0:"
    INDEX 01 01:32:59
  TRACK 117 AUDIO
    TITLE "6:cjc137_5423"
    INDEX 01 01:32:64
  TRACK 118 AUDIO
    TITLE "0:"
    INDEX 01 01:33:74
  TRACK 119 AUDIO
    TITLE "5:cjc137_5424"
    INDEX 01 01:34:06
  TRACK 120 AUDIO
    TITLE "0:"
    INDEX 01 01:35:20
